# xmcd CD database file
#
# Track frame offsets:
#	150
#	23036
#	51052
#	70023
#	99254
#	137337
#	159575
#	178249
#	201351
#	225425
#	246691
#	270765
#	289412
#
# Disc length: 4473 seconds
#
# Revision: 0
# Processed by: cddbd v1.5.1PL0 Copyright (c) Steve Scherf et al.
# Submitted via: CDex 1.50
#
DISCID=b111770d
DTITLE=Jack Brokensha and Friends - Nostalgia
DYEAR=1900
DGENRE=Jazz
TTITLE0=What Is This Thing Called Love
TTITLE1=And Then I Said
TTITLE2=March Of The Siamese Children
TTITLE3=D'Jango
TTITLE4=These Are A Few Of My Favorite Things
TTITLE5=Nice And Easy
TTITLE6=Spring Can Really Hang You Up The Most
TTITLE7=Loose Walk
TTITLE8=NOSTALGIA
TTITLE9=Little Beau Blues
TTITLE10=A New Town Is A Blue Town
TTITLE11=Little Drummer Boy
TTITLE12=Icarus
EXTD=
EXTT0=
EXTT1=
EXTT2=
EXTT3=
EXTT4=
EXTT5=
EXTT6=
EXTT7=
EXTT8=
EXTT9=
EXTT10=
EXTT11=
EXTT12=
PLAYORDER=
